<svg class="main-svg" xmlns="http://www.w3.org/2000/svg" xmlns:xlink="http://www.w3.org/1999/xlink" width="1000" height="400" style="" viewBox="0 0 1000 400"><rect x="0" y="0" width="1000" height="400" style="fill: rgb(0, 0, 0); fill-opacity: 0;"/><defs id="defs-15ac79"><g class="clips"><clipPath id="clip15ac79polar-for-traces"><path d="M130,0A130,130 0,1,0 -130,-1.592040838891559e-14A130,130 0,1,0 130,3.184081677783118e-14Z" transform="translate(130,130)"/></clipPath></g><g class="gradients"/><g class="patterns"/></defs><g class="bglayer"/><g class="layer-below"><g class="imagelayer"/><g class="shapelayer"/></g><g class="cartesianlayer"/><g class="polarlayer"><g class="polar"><g class="polarsublayer draglayer"/><g class="polarsublayer plotbg"><path d="M130,0A130,130 0,1,0 -130,-1.592040838891559e-14A130,130 0,1,0 130,3.184081677783118e-14Z" transform="translate(500,230)" style="fill: rgb(229, 236, 246); fill-opacity: 1;"/></g><g class="polarsublayer backplot"><g class="maplayer"/></g><g class="polarsublayer angular-grid" style="fill: none;"><path class="angularaxisgrid" d="M500,230L500,100" style="stroke: rgb(255, 255, 255); stroke-opacity: 1; stroke-width: 1px;"/><path class="angularaxisgrid" d="M500,230L623.6373471183699,189.82779073125684" style="stroke: rgb(255, 255, 255); stroke-opacity: 1; stroke-width: 1px;"/><path class="angularaxisgrid" d="M500,230L576.4120827980215,335.1722092687432" style="stroke: rgb(255, 255, 255); stroke-opacity: 1; stroke-width: 1px;"/><path class="angularaxisgrid" d="M500,230L423.5879172019785,335.1722092687432" style="stroke: rgb(255, 255, 255); stroke-opacity: 1; stroke-width: 1px;"/><path class="angularaxisgrid" d="M500,230L376.36265288163,189.82779073125687" style="stroke: rgb(255, 255, 255); stroke-opacity: 1; stroke-width: 1px;"/></g><g class="polarsublayer radial-grid" transform="translate(500,230)" style="fill: none;"><path class="xgrid" d="M14.96,0A14.96,14.96 0,1,0 -14.96,-1.8320716115244405e-15A14.96,14.96 0,1,0 14.96,3.664143223048881e-15Z" style="stroke: rgb(255, 255, 255); stroke-opacity: 1; stroke-width: 1px;"/><path class="xgrid" d="M29.92,0A29.92,29.92 0,1,0 -29.92,-3.664143223048881e-15A29.92,29.92 0,1,0 29.92,7.328286446097762e-15Z" style="stroke: rgb(255, 255, 255); stroke-opacity: 1; stroke-width: 1px;"/><path class="xgrid" d="M44.88,0A44.88,44.88 0,1,0 -44.88,-5.496214834573322e-15A44.88,44.88 0,1,0 44.88,1.0992429669146644e-14Z" style="stroke: rgb(255, 255, 255); stroke-opacity: 1; stroke-width: 1px;"/><path class="xgrid" d="M59.84,0A59.84,59.84 0,1,0 -59.84,-7.328286446097762e-15A59.84,59.84 0,1,0 59.84,1.4656572892195524e-14Z" style="stroke: rgb(255, 255, 255); stroke-opacity: 1; stroke-width: 1px;"/><path class="xgrid" d="M74.8,0A74.8,74.8 0,1,0 -74.8,-9.160358057622202e-15A74.8,74.8 0,1,0 74.8,1.8320716115244404e-14Z" style="stroke: rgb(255, 255, 255); stroke-opacity: 1; stroke-width: 1px;"/><path class="xgrid" d="M89.76,0A89.76,89.76 0,1,0 -89.76,-1.0992429669146644e-14A89.76,89.76 0,1,0 89.76,2.1984859338293287e-14Z" style="stroke: rgb(255, 255, 255); stroke-opacity: 1; stroke-width: 1px;"/><path class="xgrid" d="M104.72,0A104.72,104.72 0,1,0 -104.72,-1.2824501280671082e-14A104.72,104.72 0,1,0 104.72,2.5649002561342164e-14Z" style="stroke: rgb(255, 255, 255); stroke-opacity: 1; stroke-width: 1px;"/><path class="xgrid" d="M119.68,0A119.68,119.68 0,1,0 -119.68,-1.4656572892195524e-14A119.68,119.68 0,1,0 119.68,2.931314578439105e-14Z" style="stroke: rgb(255, 255, 255); stroke-opacity: 1; stroke-width: 1px;"/></g><g class="polarsublayer frontplot" transform="translate(370,100)" clip-path="url(#clip15ac79polar-for-traces)"><g class="barlayer"/><g class="scatterlayer"><g class="trace scatter trace94a34d" style="stroke-miterlimit: 2; opacity: 1;"><g class="fills"/><g class="errorbars"/><g class="lines"><path class="js-line" d="M130,0L218.07,101.38L180.21,199.11L80.14,198.62L55.02,105.64L130,0" style="vector-effect: none; fill: none; stroke: rgb(14, 88, 95); stroke-opacity: 1; stroke-width: 2px; opacity: 1;"/></g><g class="points"/><g class="text"/></g></g></g><g class="polarsublayer angular-line"><path d="M130,0A130,130 0,1,0 -130,-1.592040838891559e-14A130,130 0,1,0 130,3.184081677783118e-14Z" transform="translate(500,230)" stroke-width="1" style="fill: none; stroke: rgb(255, 255, 255); stroke-opacity: 1;"/></g><g class="polarsublayer radial-line"><line x1="0" y1="0" x2="130" y2="0" transform="translate(500,230)" stroke-width="1" style="fill: none; stroke: rgb(255, 255, 255); stroke-opacity: 1;"/></g><g class="polarsublayer angular-axis"><g class="angularaxistick"><text text-anchor="middle" x="1.7757378587636624e-16" y="-5.300000000000001" transform="translate(500,100)" style="font-family: 'Open Sans', verdana, arial, sans-serif; font-size: 12px; fill: rgb(42, 63, 95); fill-opacity: 1; white-space: pre; opacity: 1;">Interest in Conventional Aspect</text></g><g class="angularaxistick"><text text-anchor="start" x="2.7580638972559455" y="2.3566472982524225" transform="translate(623.6373471183699,189.82779073125684)" style="font-family: 'Open Sans', verdana, arial, sans-serif; font-size: 12px; fill: rgb(42, 63, 95); fill-opacity: 1; white-space: pre; opacity: 1;">Values Relationships</text></g><g class="angularaxistick"><text text-anchor="start" x="1.7045772316481722" y="14.523051275815105" transform="translate(576.4120827980215,335.1722092687432)" style="font-family: 'Open Sans', verdana, arial, sans-serif; font-size: 12px; fill: rgb(42, 63, 95); fill-opacity: 1; white-space: pre; opacity: 1;">Values Support</text></g><g class="angularaxistick"><text text-anchor="end" x="-1.704577231648172" y="14.523051275815103" transform="translate(423.5879172019785,335.1722092687432)" style="font-family: 'Open Sans', verdana, arial, sans-serif; font-size: 12px; fill: rgb(42, 63, 95); fill-opacity: 1; white-space: pre; opacity: 1;">High School Diploma or Less</text></g><g class="angularaxistick"><text text-anchor="end" x="-2.758063897255946" y="2.356647298252424" transform="translate(376.36265288163,189.82779073125687)" style="font-family: 'Open Sans', verdana, arial, sans-serif; font-size: 12px; fill: rgb(42, 63, 95); fill-opacity: 1; white-space: pre; opacity: 1;">Interest in Enterprising Aspect</text></g></g><g class="polarsublayer radial-axis" transform="translate(500,230)"><g class="xtick"><text text-anchor="start" x="0" y="14.9" transform=" rotate(90,0,8.9)" style="font-family: 'Open Sans', verdana, arial, sans-serif; font-size: 12px; fill: rgb(42, 63, 95); fill-opacity: 1; white-space: pre; opacity: 1;">0</text></g><g class="xtick"><text text-anchor="start" x="0" y="14.9" transform="translate(14.96,0) rotate(90,0,8.9)" style="font-family: 'Open Sans', verdana, arial, sans-serif; font-size: 12px; fill: rgb(42, 63, 95); fill-opacity: 1; white-space: pre; opacity: 1;">0.1</text></g><g class="xtick"><text text-anchor="start" x="0" y="14.9" transform="translate(29.92,0) rotate(90,0,8.9)" style="font-family: 'Open Sans', verdana, arial, sans-serif; font-size: 12px; fill: rgb(42, 63, 95); fill-opacity: 1; white-space: pre; opacity: 1;">0.2</text></g><g class="xtick"><text text-anchor="start" x="0" y="14.9" transform="translate(44.88,0) rotate(90,0,8.9)" style="font-family: 'Open Sans', verdana, arial, sans-serif; font-size: 12px; fill: rgb(42, 63, 95); fill-opacity: 1; white-space: pre; opacity: 1;">0.3</text></g><g class="xtick"><text text-anchor="start" x="0" y="14.9" transform="translate(59.84,0) rotate(90,0,8.9)" style="font-family: 'Open Sans', verdana, arial, sans-serif; font-size: 12px; fill: rgb(42, 63, 95); fill-opacity: 1; white-space: pre; opacity: 1;">0.4</text></g><g class="xtick"><text text-anchor="start" x="0" y="14.9" transform="translate(74.8,0) rotate(90,0,8.9)" style="font-family: 'Open Sans', verdana, arial, sans-serif; font-size: 12px; fill: rgb(42, 63, 95); fill-opacity: 1; white-space: pre; opacity: 1;">0.5</text></g><g class="xtick"><text text-anchor="start" x="0" y="14.9" transform="translate(89.76,0) rotate(90,0,8.9)" style="font-family: 'Open Sans', verdana, arial, sans-serif; font-size: 12px; fill: rgb(42, 63, 95); fill-opacity: 1; white-space: pre; opacity: 1;">0.6</text></g><g class="xtick"><text text-anchor="start" x="0" y="14.9" transform="translate(104.72,0) rotate(90,0,8.9)" style="font-family: 'Open Sans', verdana, arial, sans-serif; font-size: 12px; fill: rgb(42, 63, 95); fill-opacity: 1; white-space: pre; opacity: 1;">0.7</text></g><g class="xtick"><text text-anchor="start" x="0" y="14.9" transform="translate(119.68,0) rotate(90,0,8.9)" style="font-family: 'Open Sans', verdana, arial, sans-serif; font-size: 12px; fill: rgb(42, 63, 95); fill-opacity: 1; white-space: pre; opacity: 1;">0.8</text></g></g></g></g><g class="smithlayer"/><g class="ternarylayer"/><g class="geolayer"/><g class="funnelarealayer"/><g class="pielayer"/><g class="iciclelayer"/><g class="treemaplayer"/><g class="sunburstlayer"/><g class="glimages"/><defs id="topdefs-15ac79"><g class="clips"/></defs><g class="layer-above"><g class="imagelayer"/><g class="shapelayer"/></g><g class="infolayer"><g class="g-gtitle"><text class="gtitle" x="500" y="20" text-anchor="middle" dy="0.7em" style="opacity: 1; font-family: Optima; font-size: 17px; fill: rgb(51, 51, 56); fill-opacity: 1; white-space: pre;"><tspan style="font-weight:bold">Top Attributes for Counter and Rental Clerks</tspan></text></g><g class="g-polartitle"/></g></svg>