<svg class="main-svg" xmlns="http://www.w3.org/2000/svg" xmlns:xlink="http://www.w3.org/1999/xlink" width="1000" height="400" style="" viewBox="0 0 1000 400"><rect x="0" y="0" width="1000" height="400" style="fill: rgb(0, 0, 0); fill-opacity: 0;"/><defs id="defs-b89cea"><g class="clips"><clipPath id="clipb89ceapolar-for-traces"><path d="M130,0A130,130 0,1,0 -130,-1.592040838891559e-14A130,130 0,1,0 130,3.184081677783118e-14Z" transform="translate(130,130)"/></clipPath></g><g class="gradients"/><g class="patterns"/></defs><g class="bglayer"/><g class="layer-below"><g class="imagelayer"/><g class="shapelayer"/></g><g class="cartesianlayer"/><g class="polarlayer"><g class="polar"><g class="polarsublayer draglayer"/><g class="polarsublayer plotbg"><path d="M130,0A130,130 0,1,0 -130,-1.592040838891559e-14A130,130 0,1,0 130,3.184081677783118e-14Z" transform="translate(500,230)" style="fill: rgb(229, 236, 246); fill-opacity: 1;"/></g><g class="polarsublayer backplot"><g class="maplayer"/></g><g class="polarsublayer angular-grid" style="fill: none;"><path class="angularaxisgrid" d="M500,230L500,100" style="stroke: rgb(255, 255, 255); stroke-opacity: 1; stroke-width: 1px;"/><path class="angularaxisgrid" d="M500,230L623.6373471183699,189.82779073125684" style="stroke: rgb(255, 255, 255); stroke-opacity: 1; stroke-width: 1px;"/><path class="angularaxisgrid" d="M500,230L576.4120827980215,335.1722092687432" style="stroke: rgb(255, 255, 255); stroke-opacity: 1; stroke-width: 1px;"/><path class="angularaxisgrid" d="M500,230L423.5879172019785,335.1722092687432" style="stroke: rgb(255, 255, 255); stroke-opacity: 1; stroke-width: 1px;"/><path class="angularaxisgrid" d="M500,230L376.36265288163,189.82779073125687" style="stroke: rgb(255, 255, 255); stroke-opacity: 1; stroke-width: 1px;"/></g><g class="polarsublayer radial-grid" transform="translate(500,230)" style="fill: none;"><path class="xgrid" d="M17.11,0A17.11,17.11 0,1,0 -17.11,-2.0953706733411212e-15A17.11,17.11 0,1,0 17.11,4.1907413466822424e-15Z" style="stroke: rgb(255, 255, 255); stroke-opacity: 1; stroke-width: 1px;"/><path class="xgrid" d="M34.21,0A34.21,34.21 0,1,0 -34.21,-4.189516699883096e-15A34.21,34.21 0,1,0 34.21,8.379033399766191e-15Z" style="stroke: rgb(255, 255, 255); stroke-opacity: 1; stroke-width: 1px;"/><path class="xgrid" d="M51.32,0A51.32,51.32 0,1,0 -51.32,-6.2848873732242164e-15A51.32,51.32 0,1,0 51.32,1.2569774746448433e-14Z" style="stroke: rgb(255, 255, 255); stroke-opacity: 1; stroke-width: 1px;"/><path class="xgrid" d="M68.42,0A68.42,68.42 0,1,0 -68.42,-8.379033399766191e-15A68.42,68.42 0,1,0 68.42,1.6758066799532383e-14Z" style="stroke: rgb(255, 255, 255); stroke-opacity: 1; stroke-width: 1px;"/><path class="xgrid" d="M85.53,0A85.53,85.53 0,1,0 -85.53,-1.0474404073107313e-14A85.53,85.53 0,1,0 85.53,2.0948808146214626e-14Z" style="stroke: rgb(255, 255, 255); stroke-opacity: 1; stroke-width: 1px;"/><path class="xgrid" d="M102.63,0A102.63,102.63 0,1,0 -102.63,-1.2568550099649286e-14A102.63,102.63 0,1,0 102.63,2.5137100199298572e-14Z" style="stroke: rgb(255, 255, 255); stroke-opacity: 1; stroke-width: 1px;"/><path class="xgrid" d="M119.74,0A119.74,119.74 0,1,0 -119.74,-1.4663920772990408e-14A119.74,119.74 0,1,0 119.74,2.9327841545980815e-14Z" style="stroke: rgb(255, 255, 255); stroke-opacity: 1; stroke-width: 1px;"/></g><g class="polarsublayer frontplot" transform="translate(370,100)" clip-path="url(#clipb89ceapolar-for-traces)"><g class="barlayer"/><g class="scatterlayer"><g class="trace scatter trace882259" style="stroke-miterlimit: 2; opacity: 1;"><g class="fills"/><g class="errorbars"/><g class="lines"><path class="js-line" d="M130,0L246.15,92.26L197.46,222.86L77.32,202.51L51.91,104.63L130,0" style="vector-effect: none; fill: none; stroke: rgb(14, 88, 95); stroke-opacity: 1; stroke-width: 2px; opacity: 1;"/></g><g class="points"/><g class="text"/></g></g></g><g class="polarsublayer angular-line"><path d="M130,0A130,130 0,1,0 -130,-1.592040838891559e-14A130,130 0,1,0 130,3.184081677783118e-14Z" transform="translate(500,230)" stroke-width="1" style="fill: none; stroke: rgb(255, 255, 255); stroke-opacity: 1;"/></g><g class="polarsublayer radial-line"><line x1="0" y1="0" x2="130" y2="0" transform="translate(500,230)" stroke-width="1" style="fill: none; stroke: rgb(255, 255, 255); stroke-opacity: 1;"/></g><g class="polarsublayer angular-axis"><g class="angularaxistick"><text text-anchor="middle" x="1.7757378587636624e-16" y="-5.300000000000001" transform="translate(500,100)" style="font-family: 'Open Sans', verdana, arial, sans-serif; font-size: 12px; fill: rgb(42, 63, 95); fill-opacity: 1; white-space: pre; opacity: 1;">Interest in Conventional Aspect</text></g><g class="angularaxistick"><text text-anchor="start" x="2.7580638972559455" y="2.3566472982524225" transform="translate(623.6373471183699,189.82779073125684)" style="font-family: 'Open Sans', verdana, arial, sans-serif; font-size: 12px; fill: rgb(42, 63, 95); fill-opacity: 1; white-space: pre; opacity: 1;">Values Achievement</text></g><g class="angularaxistick"><text text-anchor="start" x="1.7045772316481722" y="14.523051275815105" transform="translate(576.4120827980215,335.1722092687432)" style="font-family: 'Open Sans', verdana, arial, sans-serif; font-size: 12px; fill: rgb(42, 63, 95); fill-opacity: 1; white-space: pre; opacity: 1;">Interest in Artistic Aspect</text></g><g class="angularaxistick"><text text-anchor="end" x="-1.704577231648172" y="14.523051275815103" transform="translate(423.5879172019785,335.1722092687432)" style="font-family: 'Open Sans', verdana, arial, sans-serif; font-size: 12px; fill: rgb(42, 63, 95); fill-opacity: 1; white-space: pre; opacity: 1;">Values Support</text></g><g class="angularaxistick"><text text-anchor="end" x="-2.758063897255946" y="2.356647298252424" transform="translate(376.36265288163,189.82779073125687)" style="font-family: 'Open Sans', verdana, arial, sans-serif; font-size: 12px; fill: rgb(42, 63, 95); fill-opacity: 1; white-space: pre; opacity: 1;">Interest in Realistic Aspect</text></g></g><g class="polarsublayer radial-axis" transform="translate(500,230)"><g class="xtick"><text text-anchor="start" x="0" y="14.9" transform=" rotate(90,0,8.9)" style="font-family: 'Open Sans', verdana, arial, sans-serif; font-size: 12px; fill: rgb(42, 63, 95); fill-opacity: 1; white-space: pre; opacity: 1;">0</text></g><g class="xtick"><text text-anchor="start" x="0" y="14.9" transform="translate(17.11,0) rotate(90,0,8.9)" style="font-family: 'Open Sans', verdana, arial, sans-serif; font-size: 12px; fill: rgb(42, 63, 95); fill-opacity: 1; white-space: pre; opacity: 1;">0.1</text></g><g class="xtick"><text text-anchor="start" x="0" y="14.9" transform="translate(34.21,0) rotate(90,0,8.9)" style="font-family: 'Open Sans', verdana, arial, sans-serif; font-size: 12px; fill: rgb(42, 63, 95); fill-opacity: 1; white-space: pre; opacity: 1;">0.2</text></g><g class="xtick"><text text-anchor="start" x="0" y="14.9" transform="translate(51.32,0) rotate(90,0,8.9)" style="font-family: 'Open Sans', verdana, arial, sans-serif; font-size: 12px; fill: rgb(42, 63, 95); fill-opacity: 1; white-space: pre; opacity: 1;">0.3</text></g><g class="xtick"><text text-anchor="start" x="0" y="14.9" transform="translate(68.42,0) rotate(90,0,8.9)" style="font-family: 'Open Sans', verdana, arial, sans-serif; font-size: 12px; fill: rgb(42, 63, 95); fill-opacity: 1; white-space: pre; opacity: 1;">0.4</text></g><g class="xtick"><text text-anchor="start" x="0" y="14.9" transform="translate(85.53,0) rotate(90,0,8.9)" style="font-family: 'Open Sans', verdana, arial, sans-serif; font-size: 12px; fill: rgb(42, 63, 95); fill-opacity: 1; white-space: pre; opacity: 1;">0.5</text></g><g class="xtick"><text text-anchor="start" x="0" y="14.9" transform="translate(102.63,0) rotate(90,0,8.9)" style="font-family: 'Open Sans', verdana, arial, sans-serif; font-size: 12px; fill: rgb(42, 63, 95); fill-opacity: 1; white-space: pre; opacity: 1;">0.6</text></g><g class="xtick"><text text-anchor="start" x="0" y="14.9" transform="translate(119.74,0) rotate(90,0,8.9)" style="font-family: 'Open Sans', verdana, arial, sans-serif; font-size: 12px; fill: rgb(42, 63, 95); fill-opacity: 1; white-space: pre; opacity: 1;">0.7</text></g></g></g></g><g class="smithlayer"/><g class="ternarylayer"/><g class="geolayer"/><g class="funnelarealayer"/><g class="pielayer"/><g class="iciclelayer"/><g class="treemaplayer"/><g class="sunburstlayer"/><g class="glimages"/><defs id="topdefs-b89cea"><g class="clips"/></defs><g class="layer-above"><g class="imagelayer"/><g class="shapelayer"/></g><g class="infolayer"><g class="g-gtitle"><text class="gtitle" x="500" y="20" text-anchor="middle" dy="0.7em" style="opacity: 1; font-family: Optima; font-size: 17px; fill: rgb(51, 51, 56); fill-opacity: 1; white-space: pre;"><tspan style="font-weight:bold">Top Attributes for Desktop Publishers</tspan></text></g><g class="g-polartitle"/></g></svg>