<svg class="main-svg" xmlns="http://www.w3.org/2000/svg" xmlns:xlink="http://www.w3.org/1999/xlink" width="1000" height="400" style="" viewBox="0 0 1000 400"><rect x="0" y="0" width="1000" height="400" style="fill: rgb(0, 0, 0); fill-opacity: 0;"/><defs id="defs-20784a"><g class="clips"><clipPath id="clip20784apolar-for-traces"><path d="M130,0A130,130 0,1,0 -130,-1.592040838891559e-14A130,130 0,1,0 130,3.184081677783118e-14Z" transform="translate(130,130)"/></clipPath></g><g class="gradients"/><g class="patterns"/></defs><g class="bglayer"/><g class="layer-below"><g class="imagelayer"/><g class="shapelayer"/></g><g class="cartesianlayer"/><g class="polarlayer"><g class="polar"><g class="polarsublayer draglayer"/><g class="polarsublayer plotbg"><path d="M130,0A130,130 0,1,0 -130,-1.592040838891559e-14A130,130 0,1,0 130,3.184081677783118e-14Z" transform="translate(500,230)" style="fill: rgb(229, 236, 246); fill-opacity: 1;"/></g><g class="polarsublayer backplot"><g class="maplayer"/></g><g class="polarsublayer angular-grid" style="fill: none;"><path class="angularaxisgrid" d="M500,230L500,100" style="stroke: rgb(255, 255, 255); stroke-opacity: 1; stroke-width: 1px;"/><path class="angularaxisgrid" d="M500,230L623.6373471183699,189.82779073125684" style="stroke: rgb(255, 255, 255); stroke-opacity: 1; stroke-width: 1px;"/><path class="angularaxisgrid" d="M500,230L576.4120827980215,335.1722092687432" style="stroke: rgb(255, 255, 255); stroke-opacity: 1; stroke-width: 1px;"/><path class="angularaxisgrid" d="M500,230L423.5879172019785,335.1722092687432" style="stroke: rgb(255, 255, 255); stroke-opacity: 1; stroke-width: 1px;"/><path class="angularaxisgrid" d="M500,230L376.36265288163,189.82779073125687" style="stroke: rgb(255, 255, 255); stroke-opacity: 1; stroke-width: 1px;"/></g><g class="polarsublayer radial-grid" transform="translate(500,230)" style="fill: none;"><path class="xgrid" d="M13.5,0A13.5,13.5 0,1,0 -13.5,-1.6532731788489269e-15A13.5,13.5 0,1,0 13.5,3.3065463576978537e-15Z" style="stroke: rgb(255, 255, 255); stroke-opacity: 1; stroke-width: 1px;"/><path class="xgrid" d="M27,0A27,27 0,1,0 -27,-3.3065463576978537e-15A27,27 0,1,0 27,6.6130927153957075e-15Z" style="stroke: rgb(255, 255, 255); stroke-opacity: 1; stroke-width: 1px;"/><path class="xgrid" d="M40.5,0A40.5,40.5 0,1,0 -40.5,-4.9598195365467806e-15A40.5,40.5 0,1,0 40.5,9.919639073093561e-15Z" style="stroke: rgb(255, 255, 255); stroke-opacity: 1; stroke-width: 1px;"/><path class="xgrid" d="M54,0A54,54 0,1,0 -54,-6.6130927153957075e-15A54,54 0,1,0 54,1.3226185430791415e-14Z" style="stroke: rgb(255, 255, 255); stroke-opacity: 1; stroke-width: 1px;"/><path class="xgrid" d="M67.5,0A67.5,67.5 0,1,0 -67.5,-8.266365894244634e-15A67.5,67.5 0,1,0 67.5,1.6532731788489267e-14Z" style="stroke: rgb(255, 255, 255); stroke-opacity: 1; stroke-width: 1px;"/><path class="xgrid" d="M81,0A81,81 0,1,0 -81,-9.919639073093561e-15A81,81 0,1,0 81,1.9839278146187122e-14Z" style="stroke: rgb(255, 255, 255); stroke-opacity: 1; stroke-width: 1px;"/><path class="xgrid" d="M94.5,0A94.5,94.5 0,1,0 -94.5,-1.1572912251942487e-14A94.5,94.5 0,1,0 94.5,2.3145824503884975e-14Z" style="stroke: rgb(255, 255, 255); stroke-opacity: 1; stroke-width: 1px;"/><path class="xgrid" d="M108,0A108,108 0,1,0 -108,-1.3226185430791415e-14A108,108 0,1,0 108,2.645237086158283e-14Z" style="stroke: rgb(255, 255, 255); stroke-opacity: 1; stroke-width: 1px;"/><path class="xgrid" d="M121.5,0A121.5,121.5 0,1,0 -121.5,-1.4879458609640343e-14A121.5,121.5 0,1,0 121.5,2.9758917219280685e-14Z" style="stroke: rgb(255, 255, 255); stroke-opacity: 1; stroke-width: 1px;"/></g><g class="polarsublayer frontplot" transform="translate(370,100)" clip-path="url(#clip20784apolar-for-traces)"><g class="barlayer"/><g class="scatterlayer"><g class="trace scatter traceba193c" style="stroke-miterlimit: 2; opacity: 1;"><g class="fills"/><g class="errorbars"/><g class="lines"><path class="js-line" d="M130,0L251.07,90.66L179.12,197.6L85.57,191.16L81.08,114.11L130,0" style="vector-effect: none; fill: none; stroke: rgb(14, 88, 95); stroke-opacity: 1; stroke-width: 2px; opacity: 1;"/></g><g class="points"/><g class="text"/></g></g></g><g class="polarsublayer angular-line"><path d="M130,0A130,130 0,1,0 -130,-1.592040838891559e-14A130,130 0,1,0 130,3.184081677783118e-14Z" transform="translate(500,230)" stroke-width="1" style="fill: none; stroke: rgb(255, 255, 255); stroke-opacity: 1;"/></g><g class="polarsublayer radial-line"><line x1="0" y1="0" x2="130" y2="0" transform="translate(500,230)" stroke-width="1" style="fill: none; stroke: rgb(255, 255, 255); stroke-opacity: 1;"/></g><g class="polarsublayer angular-axis"><g class="angularaxistick"><text text-anchor="middle" x="1.7757378587636624e-16" y="-5.300000000000001" transform="translate(500,100)" style="font-family: 'Open Sans', verdana, arial, sans-serif; font-size: 12px; fill: rgb(42, 63, 95); fill-opacity: 1; white-space: pre; opacity: 1;">Interest in Realistic Aspect</text></g><g class="angularaxistick"><text text-anchor="start" x="2.7580638972559455" y="2.3566472982524225" transform="translate(623.6373471183699,189.82779073125684)" style="font-family: 'Open Sans', verdana, arial, sans-serif; font-size: 12px; fill: rgb(42, 63, 95); fill-opacity: 1; white-space: pre; opacity: 1;">High School Diploma or Less</text></g><g class="angularaxistick"><text text-anchor="start" x="1.7045772316481722" y="14.523051275815105" transform="translate(576.4120827980215,335.1722092687432)" style="font-family: 'Open Sans', verdana, arial, sans-serif; font-size: 12px; fill: rgb(42, 63, 95); fill-opacity: 1; white-space: pre; opacity: 1;">Values Support</text></g><g class="angularaxistick"><text text-anchor="end" x="-1.704577231648172" y="14.523051275815103" transform="translate(423.5879172019785,335.1722092687432)" style="font-family: 'Open Sans', verdana, arial, sans-serif; font-size: 12px; fill: rgb(42, 63, 95); fill-opacity: 1; white-space: pre; opacity: 1;">Interest in Conventional Aspect</text></g><g class="angularaxistick"><text text-anchor="end" x="-2.758063897255946" y="2.356647298252424" transform="translate(376.36265288163,189.82779073125687)" style="font-family: 'Open Sans', verdana, arial, sans-serif; font-size: 12px; fill: rgb(42, 63, 95); fill-opacity: 1; white-space: pre; opacity: 1;">Values Relationships</text></g></g><g class="polarsublayer radial-axis" transform="translate(500,230)"><g class="xtick"><text text-anchor="start" x="0" y="14.9" transform=" rotate(90,0,8.9)" style="font-family: 'Open Sans', verdana, arial, sans-serif; font-size: 12px; fill: rgb(42, 63, 95); fill-opacity: 1; white-space: pre; opacity: 1;">0</text></g><g class="xtick"><text text-anchor="start" x="0" y="14.9" transform="translate(13.5,0) rotate(90,0,8.9)" style="font-family: 'Open Sans', verdana, arial, sans-serif; font-size: 12px; fill: rgb(42, 63, 95); fill-opacity: 1; white-space: pre; opacity: 1;">0.1</text></g><g class="xtick"><text text-anchor="start" x="0" y="14.9" transform="translate(27,0) rotate(90,0,8.9)" style="font-family: 'Open Sans', verdana, arial, sans-serif; font-size: 12px; fill: rgb(42, 63, 95); fill-opacity: 1; white-space: pre; opacity: 1;">0.2</text></g><g class="xtick"><text text-anchor="start" x="0" y="14.9" transform="translate(40.5,0) rotate(90,0,8.9)" style="font-family: 'Open Sans', verdana, arial, sans-serif; font-size: 12px; fill: rgb(42, 63, 95); fill-opacity: 1; white-space: pre; opacity: 1;">0.3</text></g><g class="xtick"><text text-anchor="start" x="0" y="14.9" transform="translate(54,0) rotate(90,0,8.9)" style="font-family: 'Open Sans', verdana, arial, sans-serif; font-size: 12px; fill: rgb(42, 63, 95); fill-opacity: 1; white-space: pre; opacity: 1;">0.4</text></g><g class="xtick"><text text-anchor="start" x="0" y="14.9" transform="translate(67.5,0) rotate(90,0,8.9)" style="font-family: 'Open Sans', verdana, arial, sans-serif; font-size: 12px; fill: rgb(42, 63, 95); fill-opacity: 1; white-space: pre; opacity: 1;">0.5</text></g><g class="xtick"><text text-anchor="start" x="0" y="14.9" transform="translate(81,0) rotate(90,0,8.9)" style="font-family: 'Open Sans', verdana, arial, sans-serif; font-size: 12px; fill: rgb(42, 63, 95); fill-opacity: 1; white-space: pre; opacity: 1;">0.6</text></g><g class="xtick"><text text-anchor="start" x="0" y="14.9" transform="translate(94.5,0) rotate(90,0,8.9)" style="font-family: 'Open Sans', verdana, arial, sans-serif; font-size: 12px; fill: rgb(42, 63, 95); fill-opacity: 1; white-space: pre; opacity: 1;">0.7</text></g><g class="xtick"><text text-anchor="start" x="0" y="14.9" transform="translate(108,0) rotate(90,0,8.9)" style="font-family: 'Open Sans', verdana, arial, sans-serif; font-size: 12px; fill: rgb(42, 63, 95); fill-opacity: 1; white-space: pre; opacity: 1;">0.8</text></g><g class="xtick"><text text-anchor="start" x="0" y="14.9" transform="translate(121.5,0) rotate(90,0,8.9)" style="font-family: 'Open Sans', verdana, arial, sans-serif; font-size: 12px; fill: rgb(42, 63, 95); fill-opacity: 1; white-space: pre; opacity: 1;">0.9</text></g></g></g></g><g class="smithlayer"/><g class="ternarylayer"/><g class="geolayer"/><g class="funnelarealayer"/><g class="pielayer"/><g class="iciclelayer"/><g class="treemaplayer"/><g class="sunburstlayer"/><g class="glimages"/><defs id="topdefs-20784a"><g class="clips"/></defs><g class="layer-above"><g class="imagelayer"/><g class="shapelayer"/></g><g class="infolayer"><g class="g-gtitle"><text class="gtitle" x="500" y="20" text-anchor="middle" dy="0.7em" style="opacity: 1; font-family: Optima; font-size: 17px; fill: rgb(51, 51, 56); fill-opacity: 1; white-space: pre;"><tspan style="font-weight:bold">Top Attributes for Sewing Machine Operators</tspan></text></g><g class="g-polartitle"/></g></svg>