<svg class="main-svg" xmlns="http://www.w3.org/2000/svg" xmlns:xlink="http://www.w3.org/1999/xlink" width="1000" height="400" style="" viewBox="0 0 1000 400"><rect x="0" y="0" width="1000" height="400" style="fill: rgb(0, 0, 0); fill-opacity: 0;"/><defs id="defs-bcb2c2"><g class="clips"><clipPath id="clipbcb2c2polar-for-traces"><path d="M130,0A130,130 0,1,0 -130,-1.592040838891559e-14A130,130 0,1,0 130,3.184081677783118e-14Z" transform="translate(130,130)"/></clipPath></g><g class="gradients"/><g class="patterns"/></defs><g class="bglayer"/><g class="layer-below"><g class="imagelayer"/><g class="shapelayer"/></g><g class="cartesianlayer"/><g class="polarlayer"><g class="polar"><g class="polarsublayer draglayer"/><g class="polarsublayer plotbg"><path d="M130,0A130,130 0,1,0 -130,-1.592040838891559e-14A130,130 0,1,0 130,3.184081677783118e-14Z" transform="translate(500,230)" style="fill: rgb(229, 236, 246); fill-opacity: 1;"/></g><g class="polarsublayer backplot"><g class="maplayer"/></g><g class="polarsublayer angular-grid" style="fill: none;"><path class="angularaxisgrid" d="M500,230L500,100" style="stroke: rgb(255, 255, 255); stroke-opacity: 1; stroke-width: 1px;"/><path class="angularaxisgrid" d="M500,230L623.6373471183699,189.82779073125684" style="stroke: rgb(255, 255, 255); stroke-opacity: 1; stroke-width: 1px;"/><path class="angularaxisgrid" d="M500,230L576.4120827980215,335.1722092687432" style="stroke: rgb(255, 255, 255); stroke-opacity: 1; stroke-width: 1px;"/><path class="angularaxisgrid" d="M500,230L423.5879172019785,335.1722092687432" style="stroke: rgb(255, 255, 255); stroke-opacity: 1; stroke-width: 1px;"/><path class="angularaxisgrid" d="M500,230L376.36265288163,189.82779073125687" style="stroke: rgb(255, 255, 255); stroke-opacity: 1; stroke-width: 1px;"/></g><g class="polarsublayer radial-grid" transform="translate(500,230)" style="fill: none;"><path class="xgrid" d="M13.46,0A13.46,13.46 0,1,0 -13.46,-1.6483745916523376e-15A13.46,13.46 0,1,0 13.46,3.296749183304675e-15Z" style="stroke: rgb(255, 255, 255); stroke-opacity: 1; stroke-width: 1px;"/><path class="xgrid" d="M26.92,0A26.92,26.92 0,1,0 -26.92,-3.296749183304675e-15A26.92,26.92 0,1,0 26.92,6.59349836660935e-15Z" style="stroke: rgb(255, 255, 255); stroke-opacity: 1; stroke-width: 1px;"/><path class="xgrid" d="M40.37,0A40.37,40.37 0,1,0 -40.37,-4.9438991281578645e-15A40.37,40.37 0,1,0 40.37,9.887798256315729e-15Z" style="stroke: rgb(255, 255, 255); stroke-opacity: 1; stroke-width: 1px;"/><path class="xgrid" d="M53.83,0A53.83,53.83 0,1,0 -53.83,-6.592273719810202e-15A53.83,53.83 0,1,0 53.83,1.3184547439620404e-14Z" style="stroke: rgb(255, 255, 255); stroke-opacity: 1; stroke-width: 1px;"/><path class="xgrid" d="M67.29,0A67.29,67.29 0,1,0 -67.29,-8.24064831146254e-15A67.29,67.29 0,1,0 67.29,1.648129662292508e-14Z" style="stroke: rgb(255, 255, 255); stroke-opacity: 1; stroke-width: 1px;"/><path class="xgrid" d="M80.75,0A80.75,80.75 0,1,0 -80.75,-9.889022903114877e-15A80.75,80.75 0,1,0 80.75,1.9778045806229755e-14Z" style="stroke: rgb(255, 255, 255); stroke-opacity: 1; stroke-width: 1px;"/><path class="xgrid" d="M94.2,0A94.2,94.2 0,1,0 -94.2,-1.1536172847968068e-14A94.2,94.2 0,1,0 94.2,2.3072345695936136e-14Z" style="stroke: rgb(255, 255, 255); stroke-opacity: 1; stroke-width: 1px;"/><path class="xgrid" d="M107.66,0A107.66,107.66 0,1,0 -107.66,-1.3184547439620404e-14A107.66,107.66 0,1,0 107.66,2.6369094879240808e-14Z" style="stroke: rgb(255, 255, 255); stroke-opacity: 1; stroke-width: 1px;"/><path class="xgrid" d="M121.12,0A121.12,121.12 0,1,0 -121.12,-1.4832922031272743e-14A121.12,121.12 0,1,0 121.12,2.9665844062545485e-14Z" style="stroke: rgb(255, 255, 255); stroke-opacity: 1; stroke-width: 1px;"/></g><g class="polarsublayer frontplot" transform="translate(370,100)" clip-path="url(#clipbcb2c2polar-for-traces)"><g class="barlayer"/><g class="scatterlayer"><g class="trace scatter trace55d5d0" style="stroke-miterlimit: 2; opacity: 1;"><g class="fills"/><g class="errorbars"/><g class="lines"><path class="js-line" d="M130,0L221.38,100.31L182.52,202.29L81.04,197.39L50.77,104.26L130,0" style="vector-effect: none; fill: none; stroke: rgb(14, 88, 95); stroke-opacity: 1; stroke-width: 2px; opacity: 1;"/></g><g class="points"/><g class="text"/></g></g></g><g class="polarsublayer angular-line"><path d="M130,0A130,130 0,1,0 -130,-1.592040838891559e-14A130,130 0,1,0 130,3.184081677783118e-14Z" transform="translate(500,230)" stroke-width="1" style="fill: none; stroke: rgb(255, 255, 255); stroke-opacity: 1;"/></g><g class="polarsublayer radial-line"><line x1="0" y1="0" x2="130" y2="0" transform="translate(500,230)" stroke-width="1" style="fill: none; stroke: rgb(255, 255, 255); stroke-opacity: 1;"/></g><g class="polarsublayer angular-axis"><g class="angularaxistick"><text text-anchor="middle" x="1.7757378587636624e-16" y="-5.300000000000001" transform="translate(500,100)" style="font-family: 'Open Sans', verdana, arial, sans-serif; font-size: 12px; fill: rgb(42, 63, 95); fill-opacity: 1; white-space: pre; opacity: 1;">Interest in Social Aspect</text></g><g class="angularaxistick"><text text-anchor="start" x="2.7580638972559455" y="2.3566472982524225" transform="translate(623.6373471183699,189.82779073125684)" style="font-family: 'Open Sans', verdana, arial, sans-serif; font-size: 12px; fill: rgb(42, 63, 95); fill-opacity: 1; white-space: pre; opacity: 1;">Values Achievement</text></g><g class="angularaxistick"><text text-anchor="start" x="1.7045772316481722" y="14.523051275815105" transform="translate(576.4120827980215,335.1722092687432)" style="font-family: 'Open Sans', verdana, arial, sans-serif; font-size: 12px; fill: rgb(42, 63, 95); fill-opacity: 1; white-space: pre; opacity: 1;">Interest in Conventional Aspect</text></g><g class="angularaxistick"><text text-anchor="end" x="-1.704577231648172" y="14.523051275815103" transform="translate(423.5879172019785,335.1722092687432)" style="font-family: 'Open Sans', verdana, arial, sans-serif; font-size: 12px; fill: rgb(42, 63, 95); fill-opacity: 1; white-space: pre; opacity: 1;">Values Independence</text></g><g class="angularaxistick"><text text-anchor="end" x="-2.758063897255946" y="2.356647298252424" transform="translate(376.36265288163,189.82779073125687)" style="font-family: 'Open Sans', verdana, arial, sans-serif; font-size: 12px; fill: rgb(42, 63, 95); fill-opacity: 1; white-space: pre; opacity: 1;">Values Support</text></g></g><g class="polarsublayer radial-axis" transform="translate(500,230)"><g class="xtick"><text text-anchor="start" x="0" y="14.9" transform=" rotate(90,0,8.9)" style="font-family: 'Open Sans', verdana, arial, sans-serif; font-size: 12px; fill: rgb(42, 63, 95); fill-opacity: 1; white-space: pre; opacity: 1;">0</text></g><g class="xtick"><text text-anchor="start" x="0" y="14.9" transform="translate(13.46,0) rotate(90,0,8.9)" style="font-family: 'Open Sans', verdana, arial, sans-serif; font-size: 12px; fill: rgb(42, 63, 95); fill-opacity: 1; white-space: pre; opacity: 1;">0.1</text></g><g class="xtick"><text text-anchor="start" x="0" y="14.9" transform="translate(26.92,0) rotate(90,0,8.9)" style="font-family: 'Open Sans', verdana, arial, sans-serif; font-size: 12px; fill: rgb(42, 63, 95); fill-opacity: 1; white-space: pre; opacity: 1;">0.2</text></g><g class="xtick"><text text-anchor="start" x="0" y="14.9" transform="translate(40.37,0) rotate(90,0,8.9)" style="font-family: 'Open Sans', verdana, arial, sans-serif; font-size: 12px; fill: rgb(42, 63, 95); fill-opacity: 1; white-space: pre; opacity: 1;">0.3</text></g><g class="xtick"><text text-anchor="start" x="0" y="14.9" transform="translate(53.83,0) rotate(90,0,8.9)" style="font-family: 'Open Sans', verdana, arial, sans-serif; font-size: 12px; fill: rgb(42, 63, 95); fill-opacity: 1; white-space: pre; opacity: 1;">0.4</text></g><g class="xtick"><text text-anchor="start" x="0" y="14.9" transform="translate(67.29,0) rotate(90,0,8.9)" style="font-family: 'Open Sans', verdana, arial, sans-serif; font-size: 12px; fill: rgb(42, 63, 95); fill-opacity: 1; white-space: pre; opacity: 1;">0.5</text></g><g class="xtick"><text text-anchor="start" x="0" y="14.9" transform="translate(80.75,0) rotate(90,0,8.9)" style="font-family: 'Open Sans', verdana, arial, sans-serif; font-size: 12px; fill: rgb(42, 63, 95); fill-opacity: 1; white-space: pre; opacity: 1;">0.6</text></g><g class="xtick"><text text-anchor="start" x="0" y="14.9" transform="translate(94.2,0) rotate(90,0,8.9)" style="font-family: 'Open Sans', verdana, arial, sans-serif; font-size: 12px; fill: rgb(42, 63, 95); fill-opacity: 1; white-space: pre; opacity: 1;">0.7</text></g><g class="xtick"><text text-anchor="start" x="0" y="14.9" transform="translate(107.66,0) rotate(90,0,8.9)" style="font-family: 'Open Sans', verdana, arial, sans-serif; font-size: 12px; fill: rgb(42, 63, 95); fill-opacity: 1; white-space: pre; opacity: 1;">0.8</text></g><g class="xtick"><text text-anchor="start" x="0" y="14.9" transform="translate(121.12,0) rotate(90,0,8.9)" style="font-family: 'Open Sans', verdana, arial, sans-serif; font-size: 12px; fill: rgb(42, 63, 95); fill-opacity: 1; white-space: pre; opacity: 1;">0.9</text></g></g></g></g><g class="smithlayer"/><g class="ternarylayer"/><g class="geolayer"/><g class="funnelarealayer"/><g class="pielayer"/><g class="iciclelayer"/><g class="treemaplayer"/><g class="sunburstlayer"/><g class="glimages"/><defs id="topdefs-bcb2c2"><g class="clips"/></defs><g class="layer-above"><g class="imagelayer"/><g class="shapelayer"/></g><g class="infolayer"><g class="g-gtitle"><text class="gtitle" x="500" y="20" text-anchor="middle" dy="0.7em" style="opacity: 1; font-family: Optima; font-size: 17px; fill: rgb(51, 51, 56); fill-opacity: 1; white-space: pre;"><tspan style="font-weight:bold">Top Attributes for Teaching Assistants, Postsecondary</tspan></text></g><g class="g-polartitle"/></g></svg>